<svg width="840" height="840" viewBox="0 0 840 840" fill="none" xmlns="http://www.w3.org/2000/svg">
<path fill-rule="evenodd" clip-rule="evenodd" d="M195.855 245.912H185.5L178.178 253.234L28.6777 402.734L11 420.412L28.6777 438.089L325.678 735.089L343.355 752.767L361.033 735.089L420.355 675.767L479.678 735.089L497.355 752.767L515.033 735.089L812.033 438.089L829.711 420.412L812.033 402.734L662.533 253.234L655.211 245.912H644.855H501.211H490.855H349.855H339.5H195.855ZM497.355 682.056L455.711 640.412L658.033 438.089L675.711 420.412L658.033 402.734L654.198 398.899L654.477 398.621L551.767 295.912H634.5L759 420.412L497.355 682.056ZM360.211 295.912H480.5L605 420.412L420.355 605.056L235.711 420.412L360.211 295.912ZM182.678 402.734L289.5 295.912H206.654L129.976 372.589L129.755 372.368L81.7107 420.412L343.355 682.056L385 640.412L182.678 438.089L165 420.412L182.678 402.734ZM465 418.412L392.588 346H463.299L518.033 400.734L535.711 418.412L518.033 436.089L421.214 532.908L385.859 497.552L465 418.412ZM361.533 105.678L343.855 88L326.178 105.678L245.5 186.355H316.211L343.855 158.711L371.5 186.355H442.211L361.533 105.678Z" fill="url(#paint0_linear)"/>
<defs>
<linearGradient id="paint0_linear" x1="420" y1="88" x2="420" y2="753" gradientUnits="userSpaceOnUse">
<stop offset="0.15208" stop-color="#444B57" stop-opacity="0.7"/>
<stop offset="0.233504" stop-color="#444B57"/>
<stop offset="0.502204" stop-color="#444B57"/>
<stop offset="0.822917" stop-color="#444B57" stop-opacity="0.7"/>
</linearGradient>
</defs>
</svg>
